<?xml version="1.0"?>
<svg xmlns="http://www.w3.org/2000/svg" version="1" viewBox="0 0 24 24" enable-background="new 0 0 24 24">
    <g fill="beige">
        <path d="M 12 3 C 10.895431 3 10 3.8954305 10 5 C 10 5.0747209 10.023267 5.1461557 10.03125 5.21875 L 4.78125 9.15625 C 4.5419733 9.0550445 4.2761424 9 4 9 C 2.8954305 9 2 9.8954305 2 11 C 2 11.966498 2.6823837 12.782257 3.59375 12.96875 L 3.625 12.96875 L 5.53125 18.6875 C 5.2155452 19.041114 5 19.488661 5 20 C 5 21.104569 5.8954305 22 7 22 C 7.7396043 22 8.3727074 21.596896 8.71875 21 L 15.28125 21 C 15.627293 21.596896 16.260396 22 17 22 C 18.104569 22 19 21.104569 19 20 C 19 19.488661 18.784455 19.041114 18.46875 18.6875 L 20.375 12.96875 L 20.40625 12.96875 C 21.317616 12.782257 22 11.966498 22 11 C 22 9.8954305 21.104569 9 20 9 C 19.723858 9 19.458027 9.0550445 19.21875 9.15625 L 13.96875 5.21875 C 13.976733 5.1461557 14 5.0747209 14 5 C 14 3.8954305 13.104569 3 12 3 z M 11.21875 6.84375 C 11.458027 6.9449555 11.723858 7 12 7 C 12.276142 7 12.541973 6.9449555 12.78125 6.84375 L 18.03125 10.75 C 18.020891 10.83247 18 10.914721 18 11 C 18 11.511339 18.215545 11.958886 18.53125 12.3125 L 16.59375 18.03125 C 16.02653 18.14732 15.562693 18.514534 15.28125 19 L 8.71875 19 C 8.4373075 18.514534 7.9734698 18.14732 7.40625 18.03125 L 5.46875 12.3125 C 5.7844548 11.958886 6 11.511339 6 11 C 6 10.914721 5.979109 10.83247 5.96875 10.75 L 11.21875 6.84375 z"/>
    </g>
</svg>
